<?xml version="1.0" standalone="no"?>
<!DOCTYPE svg PUBLIC "-//W3C//DTD SVG 20010904//EN"
 "http://www.w3.org/TR/2001/REC-SVG-20010904/DTD/svg10.dtd">
<svg version="1.0" xmlns="http://www.w3.org/2000/svg"
 width="1024.000000pt" height="1024.000000pt" viewBox="0 0 1024.000000 1024.000000"
 preserveAspectRatio="xMidYMid meet">

<g transform="translate(0.000000,1024.000000) scale(0.100000,-0.100000)"
fill="#000000" stroke="none">
<path d="M4850 8074 c-633 -92 -1172 -482 -1450 -1049 -219 -448 -252 -981
-91 -1465 218 -654 778 -1141 1471 -1282 101 -20 144 -23 345 -23 248 0 337
12 538 70 356 104 709 344 956 650 328 407 475 941 406 1472 -70 533 -371
1013 -831 1324 -228 154 -565 276 -849 309 -123 14 -380 11 -495 -6z m515
-209 c275 -40 539 -143 748 -292 113 -81 295 -259 382 -374 217 -288 328 -598
342 -959 17 -427 -110 -809 -382 -1147 -68 -85 -272 -283 -290 -282 -17 0
-382 461 -785 989 -198 261 -216 280 -251 280 -40 0 -79 -38 -182 -174 -50
-67 -156 -204 -236 -306 -79 -102 -199 -255 -265 -340 -167 -216 -357 -450
-365 -450 -14 0 -213 194 -274 268 -180 216 -310 485 -367 763 -28 133 -38
414 -20 556 67 537 407 1028 890 1286 167 89 365 154 552 181 126 19 380 19
503 1z m-122 -2652 c144 -290 224 -419 373 -601 15 -18 24 -35 21 -38 -7 -7
-255 -74 -273 -74 -14 0 -142 268 -188 395 -20 55 -40 109 -45 119 -6 15 -15
-2 -41 -75 -65 -182 -188 -439 -211 -439 -18 0 -255 61 -268 70 -10 6 4 29 54
91 125 156 246 353 357 586 60 124 96 193 104 193 2 0 54 -102 117 -227z"/>
<path d="M4981 7474 c-166 -45 -311 -196 -350 -364 -25 -110 -9 -226 48 -338
30 -60 238 -329 325 -421 72 -76 134 -87 203 -35 37 28 297 348 342 421 122
198 92 444 -73 608 -69 68 -136 107 -221 130 -73 19 -202 18 -274 -1z m227
-260 c107 -44 172 -173 141 -282 -18 -65 -96 -143 -162 -161 -190 -54 -357
141 -274 322 51 111 186 167 295 121z"/>
<path d="M3758 3709 c-155 -23 -234 -113 -245 -280 l-6 -78 -61 -3 -61 -3 0
-95 0 -95 63 -3 62 -3 0 -308 c0 -252 3 -311 14 -320 9 -8 48 -11 112 -9 l99
3 3 318 2 317 106 0 105 0 -3 97 -3 97 -100 2 -100 2 -3 51 c-3 46 0 55 27 81
23 23 39 30 73 32 24 0 50 1 58 2 12 1 15 19 15 101 l0 100 -50 1 c-27 1 -75
-2 -107 -7z"/>
<path d="M3064 3671 c-67 -41 -83 -109 -41 -172 63 -93 222 -65 242 43 20 106
-106 187 -201 129z"/>
<path d="M1362 3099 l3 -584 240 0 c269 1 314 8 441 70 84 41 168 125 208 207
46 95 60 171 60 318 -1 116 -4 146 -26 211 -45 137 -124 231 -243 290 -99 48
-175 60 -443 66 l-242 6 2 -584z m521 341 c32 -12 74 -36 93 -53 73 -63 111
-187 101 -330 -7 -113 -37 -190 -97 -248 -67 -66 -125 -83 -270 -84 l-115 0
-3 330 c-2 182 0 350 3 374 l7 44 111 -6 c82 -3 128 -11 170 -27z"/>
<path d="M5425 3669 c-3 -8 -4 -270 -3 -584 l3 -570 235 -2 c129 -1 271 3 314
8 151 17 264 94 307 207 27 74 23 196 -9 258 -22 43 -87 108 -127 126 l-24 11
37 27 c20 14 51 51 67 81 27 48 30 63 29 134 0 62 -5 91 -23 128 -34 69 -105
129 -188 157 -63 21 -88 24 -340 28 -224 3 -274 2 -278 -9z m525 -220 c46 -26
60 -54 60 -118 0 -34 -6 -56 -22 -76 -35 -45 -74 -55 -213 -55 l-125 0 0 128
c0 71 3 132 7 135 3 4 62 7 131 7 108 0 129 -3 162 -21z m44 -468 c42 -28 55
-58 56 -123 0 -50 -4 -62 -30 -92 -40 -45 -80 -53 -242 -48 l-128 4 0 139 0
139 158 0 c138 0 160 -2 186 -19z"/>
<path d="M4176 3583 c-3 -4 -6 -57 -6 -120 l0 -113 -70 0 c-38 0 -70 -1 -71
-2 -5 -17 -9 -156 -5 -174 6 -21 12 -23 74 -26 l67 -3 5 -230 c6 -241 9 -261
56 -323 50 -65 168 -100 302 -88 42 3 79 9 83 14 4 4 5 48 1 97 l-7 90 -78 0
c-73 0 -80 2 -102 27 -28 32 -38 129 -33 303 l3 110 101 3 101 3 7 85 c9 114
8 116 -108 112 l-91 -3 -6 120 c-4 66 -7 121 -8 122 -3 6 -209 1 -215 -4z"/>
<path d="M6663 3362 c-111 -40 -185 -117 -206 -217 -6 -30 -9 -56 -6 -59 2 -2
51 -5 108 -7 l103 -4 12 35 c17 54 65 80 145 80 84 0 125 -23 140 -77 22 -78
20 -81 -66 -87 -255 -21 -329 -37 -399 -91 -95 -73 -110 -257 -28 -355 50 -59
96 -75 214 -75 120 0 173 15 246 71 24 19 46 34 49 34 2 0 5 -21 7 -47 l3 -48
94 -3 c60 -2 98 1 107 9 11 9 14 61 14 273 0 356 -12 416 -97 498 -67 65 -120
82 -263 85 -102 3 -135 0 -177 -15z m305 -548 c3 -38 -1 -45 -35 -73 -43 -36
-117 -61 -179 -61 -117 0 -145 143 -34 170 19 5 82 8 140 7 l105 -2 3 -41z"/>
<path d="M7532 3366 c-71 -18 -140 -63 -176 -114 -39 -55 -48 -157 -22 -227
35 -90 116 -135 300 -166 141 -24 166 -39 166 -100 0 -48 -27 -75 -84 -83 -85
-13 -165 20 -193 79 -13 26 -21 33 -37 30 -12 -3 -57 -9 -101 -15 -44 -6 -83
-14 -88 -19 -14 -14 36 -112 79 -154 79 -78 188 -113 329 -104 119 7 178 30
241 92 61 61 79 114 71 211 -10 128 -85 192 -264 226 -198 38 -213 44 -213 99
0 45 16 67 59 80 61 18 128 4 168 -36 18 -18 33 -40 33 -49 0 -9 8 -16 20 -16
39 0 175 23 184 31 16 15 -25 98 -73 148 -62 64 -135 91 -256 97 -55 2 -110
-1 -143 -10z"/>
<path d="M8433 3365 c-154 -34 -277 -155 -313 -307 -15 -65 -12 -206 5 -273
47 -178 199 -285 405 -285 133 0 240 41 329 127 29 28 52 56 50 62 -3 7 -42
29 -89 51 l-85 39 -35 -34 c-72 -70 -167 -84 -258 -39 -51 25 -89 72 -107 131
l-6 23 298 2 298 3 3 60 c7 134 -43 281 -118 348 -53 48 -123 83 -195 96 -73
14 -104 13 -182 -4z m206 -204 c30 -22 57 -69 63 -111 l3 -25 -182 -3 c-202
-3 -197 -5 -169 61 16 40 77 95 114 103 15 3 31 7 37 8 24 6 108 -15 134 -33z"/>
<path d="M2765 3351 c-23 -10 -59 -39 -82 -65 l-42 -48 -3 54 -3 53 -108 3
c-80 2 -108 -1 -112 -10 -2 -7 -1 -195 3 -418 l7 -405 99 -3 c58 -2 103 2 111
8 9 8 12 67 12 243 0 185 4 239 16 267 32 76 89 109 195 115 36 2 69 8 74 13
5 5 7 53 6 108 l-3 99 -65 2 c-46 2 -77 -2 -105 -16z"/>
<path d="M5095 3352 c-38 -18 -115 -88 -115 -104 0 -4 -4 -8 -8 -8 -5 0 -9 21
-11 47 -1 26 -4 50 -7 55 -7 12 -212 10 -216 -2 -1 -5 -1 -193 2 -417 l5 -408
110 0 110 0 1 235 c1 262 6 292 59 339 42 37 90 51 173 51 l63 0 -3 113 -3
112 -60 3 c-42 1 -72 -4 -100 -16z"/>
<path d="M3028 3343 c-2 -5 -1 -192 2 -418 l5 -410 110 0 110 0 -4 410 c-2
226 -6 413 -8 418 -2 4 -51 7 -108 7 -57 0 -105 -3 -107 -7z"/>
</g>
</svg>
